<?xml version="1.0" encoding="UTF-8"?><svg id="a" xmlns="http://www.w3.org/2000/svg" viewBox="0 0 340.16 340.16"><defs><style>.b,.c,.d{stroke-width:0px;}.c{fill:#444;}.d{fill:#f2f2f2;}</style></defs><circle class="d" cx="172.1" cy="170.08" r="169.25"/><path class="c" d="M196.12,149.6c-9.73,35.93-29.01,44.2-67.5,62.67-30.53,16.42-27.14,48.83-26.48,55.67,2.83-31.58,40.68-46.81,40.68-46.81,11.23-7.18,57.91-18.59,53.3-71.53Z"/><circle class="b" cx="155.36" cy="116.62" r="16.35"/><path class="b" d="M237.52,88.48c-23.71,4.93-37.68,22.25-46.98,44.28-3.45,8.18-6.78,17.59-10.71,28.47-3.27,7.28-7.19,12.89-11.39,17.2-.48.5-1.01.95-1.57,1.38-5.97,4.51-12.2,7.84-17.56,10.46-5.13,2.51-9.46,4.37-11.98,6,0,0-37.76,15.47-40.39,47.07-.07-6.43-6.45-34.94,23.48-54.21,1.57-1.01,3.21-1.9,4.89-2.72.02-.01.05-.02.07-.04t.01,0s.13-.07.29-.14c3.17-1.62,29.78-15.87,9.73-28.69,0,0-21.48-18.66-25.82,20.17,0,0-11.83-36.69,15.25-39.92,0,0,8.74-2.03,20.81,1.76,3.37,1.06,6.58,2.59,9.63,4.39,4,2.37,12.51,6.05,16.76-2.14.38-.72,4.74-13.78,11.2-25.19,4.52-7.99,10.89-14.96,18.17-19.59,13.1-8.33,23.3-9.23,36.11-8.55Z"/><path class="c" d="M137.74,130.56c6.94,33.71-9.25,50.23-36.91,79.38-22.77,24.41-7.25,53-4.71,58-7.08-34.12,19.27-55.78,19.27-55.78,18.36-18.91,43.42-43.24,22.34-81.6Z"/><ellipse class="b" cx="118.56" cy="291.62" rx="38.39" ry="7.32"/><polygon class="b" points="270.51 72.89 273.07 64.17 281.75 61.31 274.2 56.21 274.16 47.14 266.93 52.71 258.22 49.96 261.31 58.5 255.97 65.88 265.1 65.59 270.51 72.89"/><polygon class="b" points="253.23 68.88 254.78 71.26 257.62 71.34 255.83 73.55 256.63 76.27 253.98 75.25 251.64 76.86 251.79 74.02 249.53 72.29 252.28 71.56 253.23 68.88"/><polygon class="b" points="249.3 61.27 250.3 62.65 252 62.61 251 63.99 251.56 65.59 249.94 65.06 248.59 66.1 248.59 64.39 247.19 63.43 248.81 62.9 249.3 61.27"/><path class="b" d="M155.44,90.75l-16.11-29.92c-.07-.44-.02-11.23-.02-11.23l4.79-8.38v15.75s11.34,33.78,11.34,33.78Z"/><polygon class="b" points="155.44 91.23 131.57 66.93 131.57 58.98 136.2 50.93 136.2 63.37 155.44 91.23"/><polygon class="b" points="155.44 91.7 124.32 72.97 124.32 67.92 128.89 60.06 128.91 69.08 155.44 91.7"/><path class="b" d="M120.11,76.2l-4.44,7.7,7.2-.97,32.57,9.08-35.33-15.81Z"/><path class="b" d="M121.34,87.24l-4.01,6.95,5.3-2.07h32.81l-34.1-4.88Z"/></svg>